<svg fill="none" height="1024" viewBox="0 0 611 1024" width="611" xmlns="http://www.w3.org/2000/svg" xmlns:xlink="http://www.w3.org/1999/xlink"><linearGradient id="a" gradientUnits="userSpaceOnUse" x1="305.5" x2="305.5" y1="0" y2="1024"><stop offset="0" stop-color="#162cf1"/><stop offset="1" stop-color="#0d198b"/></linearGradient><linearGradient id="b" gradientUnits="userSpaceOnUse" x1="396" x2="396" y1="10" y2="1015"><stop offset="0" stop-color="#fff"/><stop offset="1" stop-color="#dedede"/></linearGradient><path d="m0 0h611v1024h-611z" fill="url(#a)"/><path d="m20.4261 989.461v-1.522h7.1677v1.522h-2.6719v7.206h-1.8239v-7.206zm8.4259 7.206h-1.9773l3.0128-8.728h2.3779l3.0085 8.728h-1.9773l-2.1861-6.733h-.0682zm-.1236-3.431h4.6705v1.441h-4.6705zm11.7711-2.787c-.0341-.343-.1804-.61-.439-.801-.2585-.19-.6093-.285-1.0525-.285-.3012 0-.5554.042-.7628.128-.2074.082-.3665.197-.4773.345-.1079.148-.1619.315-.1619.503-.0057.156.027.292.098.409.0739.116.1747.217.3026.302.1278.083.2755.155.4431.218.1677.059.3466.11.537.153l.7841.188c.3806.085.7301.198 1.0483.34.3181.142.5937.317.8267.525.2329.207.4133.451.5412.733.1306.281.1974.603.2002.967-.0028.534-.1392.997-.409 1.389-.2671.389-.6535.692-1.1591.908-.5029.213-1.1094.319-1.8196.319-.7046 0-1.3182-.108-1.8409-.324-.5199-.215-.9262-.535-1.2188-.958-.2898-.426-.4418-.953-.456-1.581h1.7855c.0199.292.1037.537.2515.733.1505.193.3508.339.6008.439.2529.096.5384.144.8566.144.3125 0 .5838-.045.8139-.136.2329-.091.4133-.217.5412-.379.1278-.162.1917-.348.1917-.558 0-.196-.0582-.361-.1747-.495-.1136-.133-.2812-.247-.5028-.341-.2188-.093-.4872-.179-.8054-.255l-.9503-.239c-.7358-.179-1.3168-.459-1.7429-.839-.4261-.381-.6378-.894-.635-1.539-.0028-.528.1378-.99.4219-1.385.287-.395.6804-.703 1.1804-.924.5-.222 1.0682-.333 1.7046-.333.6477 0 1.213.111 1.696.333.4858.221.8636.529 1.1335.924s.4091.853.4176 1.372zm2.7689 6.218v-8.728h5.7784v1.522h-3.9333v2.079h3.5498v1.522h-3.5498v3.605zm10.922-8.728v8.728h-1.8452v-8.728zm2.9394 4.944v3.784h-1.8154v-6.546h1.7301v1.155h.0768c.1448-.381.3877-.682.7286-.903.341-.225.7543-.337 1.2401-.337.4545 0 .8509.099 1.1889.298.3381.199.6009.483.7884.853.1875.366.2812.804.2812 1.312v4.168h-1.8153v-3.844c.0028-.401-.0994-.713-.3068-.938-.2074-.227-.4929-.34-.8566-.34-.2443 0-.4602.052-.6477.157-.1847.105-.3295.259-.4347.46-.1022.199-.1548.439-.1576.721zm8.2469 3.912c-.6705 0-1.2472-.142-1.7302-.427-.4801-.286-.8494-.684-1.1079-1.193-.2557-.508-.3835-1.093-.3835-1.755 0-.671.1292-1.259.3878-1.765.2613-.508.6321-.904 1.1122-1.189.4801-.286 1.0511-.43 1.713-.43.5711 0 1.0711.104 1.5.311.429.208.7685.499 1.0185.874s.3878.815.4134 1.321h-1.7131c-.0483-.327-.1761-.59-.3835-.789-.2046-.201-.473-.302-.8054-.302-.2813 0-.527.077-.7372.23-.2074.151-.3694.371-.4858.66-.1165.29-.1748.641-.1748 1.053 0 .418.0569.773.1705 1.065.1165.293.2798.516.4901.669.2102.154.4559.231.7372.231.2074 0 .3934-.043.5582-.128.1676-.086.3054-.209.4134-.371.1108-.165.1832-.362.2173-.592h1.7131c-.0285.5-.1648.94-.4091 1.321-.2415.377-.5753.673-1.0015.886-.4261.213-.9304.32-1.5127.32zm4.7866-.017c-.2812 0-.5227-.1-.7244-.299-.1989-.201-.2983-.443-.2983-.724 0-.279.0994-.517.2983-.716.2017-.199.4432-.298.7244-.298.2728 0 .5114.099.7159.298.2046.199.3069.437.3069.716 0 .187-.0483.359-.1449.515-.0938.154-.2174.277-.3708.371-.1534.091-.3224.137-.5071.137z" fill="#fff"/><g fill="url(#b)"><path d="m268.037 1015v-223.607l221.749 223.607h96.156l-390.942-390.943v390.943z"/><path d="m597 686.037h-223.607l223.607 221.749v96.154l-390.942-390.94h390.942z"/><path clip-rule="evenodd" d="m262.806 362.684-67.806 67.806v9.018c0 64.864 52.584 117.85 117.451 117.85 64.732 0 117.234-52.365 117.452-117.043v-102.973c.219-27.231 22.362-49.239 49.645-49.239 26.918 0 48.832 21.423 49.623 48.148v265.576h67.829v-265.576c-.372-64.548-52.815-116.759-117.452-116.759-64.638 0-117.081 52.211-117.45 116.759v104.064h-.017c-.643 26.857-22.617 48.432-49.63 48.432-27.283 0-49.426-22.008-49.645-49.239z" fill-rule="evenodd"/><path d="m195 412 402-402h-98.877l-98.907 99.736v-99.3328h-75.103v175.0648l-54.01 54.464v-229.932h-75.103z"/></g></svg>