<svg fill="none" height="27" viewBox="0 0 67 27" width="67" xmlns="http://www.w3.org/2000/svg" xmlns:xlink="http://www.w3.org/1999/xlink"><linearGradient id="a" gradientUnits="userSpaceOnUse" x1="1.6884" x2="26.8" y1="25.1116" y2=".000016"><stop offset="0" stop-color="#0d198b"/><stop offset="1" stop-color="#162cf1"/></linearGradient><linearGradient id="b" gradientUnits="userSpaceOnUse" x1="31.3024" x2="54.9132" y1="3.4304" y2="27.0412"><stop offset="0" stop-color="#444"/><stop offset="1" stop-color="#101010"/></linearGradient><path d="m.00000021 4.86913h14.90709979l-14.90709914 14.78327.00000028 6.4105 26.06279886-26.0629-26.0628.00000114z" fill="url(#a)"/><path d="m21.9309 26.8v-14.9071l-14.7833 14.9071h-6.410443l26.062843-26.062816v26.062816z" fill="url(#a)"/><g fill="url(#b)"><path d="m67 5.00684h-15.3288l15.3288 15.20146v6.5917l-26.8-26.8 26.8.00000117z"/><path d="m66.9731 13.6144h-6.6944l6.7139 6.5865.0074 6.5992-18.1925-18.19254h18.1656z"/><path clip-rule="evenodd" d="m43.4877 4.52044-4.5204-4.52044-.6012.00002617c-4.3242 0-7.8566 3.50559383-7.8566 7.83005383 0 4.31552 3.4909 7.81562 7.8028 7.83012h6.8649c1.8154.0146 3.2826 1.4908 3.2826 3.3097 0 1.7945-1.4282 3.2555-3.2099 3.3082h-17.3779v4.5219h17.3779c4.3032-.0248 7.784-3.5209 7.784-7.8301s-3.4808-7.8054-7.784-7.83h-6.9376v-.0011c-1.7905-.0429-3.2288-1.50783-3.2288-3.30872 0-1.81889 1.4672-3.29509 3.2826-3.30964z" fill-rule="evenodd"/></g></svg>